<svg width="141" height="25" viewBox="0 0 141 25" fill="none" xmlns="http://www.w3.org/2000/svg">
<path d="M12.6448 1.58438L0.582031 24.755H4.60476L8.12021 18.0342H18.9529L22.5148 24.755H26.7502L14.5129 1.58411L12.6448 1.58438ZM17.1344 14.4337H10.0078L13.5797 7.60729L17.1344 14.4337ZM54.786 1.58438L45.4315 18.6536L36.1402 1.58438H34.5131L30.8684 24.7564H34.5219L36.7983 10.3237L44.6556 24.7564H46.2194L54.1342 10.3523L56.3338 24.7564H59.9869L56.4671 1.58438H54.786ZM75.9704 1.58438L63.9079 24.755H67.9304L71.4459 18.0342H82.278L85.8404 24.755H90.0759L77.8391 1.58411L75.9704 1.58438ZM80.4603 14.4337H73.3339L76.9056 7.60729L80.4603 14.4337ZM106.663 14.2182C108.02 13.7224 109.082 12.9713 109.823 11.9884C110.595 10.9621 110.946 9.17056 110.946 7.93947C110.946 6.37401 110.397 5.03629 109.315 3.96311C108.254 2.90929 106.861 2.21438 105.179 1.89638C104.069 1.68474 103.004 1.58438 99.9652 1.58438H94.161V24.7558H97.7692V14.9758H99.9759L107.468 24.7564H112.202L104.527 14.7827C105.154 14.645 106.103 14.4227 106.663 14.2182ZM106.762 9.88865C106.369 10.3916 105.808 10.7641 105.097 10.9973C104.347 11.2436 103.154 11.366 101.555 11.366L97.7695 11.3409V5.19311H101.653C103.302 5.19311 104.484 5.30847 105.173 5.53511C105.836 5.75329 106.353 6.10511 106.758 6.60692C107.152 7.09947 107.344 7.62665 107.344 8.22392C107.344 8.84111 107.155 9.38629 106.762 9.88865ZM136.611 4.40111C134.226 2.12656 131.222 0.974014 127.689 0.974014C125.505 0.974014 123.444 1.50311 121.567 2.54956C119.686 3.59683 118.181 5.06492 117.091 6.91156C116.004 8.76201 115.449 10.7955 115.449 12.9604C115.449 16.2129 116.662 19.0212 119.053 21.3107C121.44 23.5948 124.408 24.7539 127.871 24.7539C131.296 24.7539 134.239 23.5877 136.622 21.2949C139.008 18.9967 140.218 16.1576 140.218 12.8567C140.218 9.52538 139.003 6.68056 136.611 4.40111ZM136.685 12.8494C136.685 14.4473 136.294 15.9165 135.528 17.2207C134.761 18.524 133.676 19.5661 132.304 20.3175C130.927 21.0721 129.408 21.4553 127.791 21.4553C125.369 21.4553 123.272 20.6251 121.558 18.9855C119.85 17.3535 118.983 15.3233 118.983 12.95C118.983 11.3453 119.373 9.86956 120.148 8.56565C120.92 7.26038 122.011 6.20792 123.39 5.4372C124.77 4.66401 126.25 4.27265 127.792 4.27265C129.359 4.27265 130.865 4.66456 132.265 5.43829C133.665 6.21038 134.763 7.25192 135.531 8.53101C136.297 9.80847 136.685 11.2616 136.685 12.8494Z" fill="black"/>
</svg>
