<svg width="19" height="23" viewBox="0 0 19 23" fill="none" xmlns="http://www.w3.org/2000/svg">
<path d="M17.259 20.701C17.259 21.0516 16.9737 21.3362 16.6238 21.3362H2.0639C1.71327 21.3362 1.42865 21.0509 1.42865 20.701V7.4652C1.42865 7.11526 1.71396 6.82995 2.0639 6.82995H4.91152V7.84676C4.91152 8.16095 5.1659 8.41533 5.48008 8.41533C5.79427 8.41533 6.04865 8.16095 6.04865 7.84676V6.82995H12.6383V7.86533C12.6383 8.17951 12.8927 8.43389 13.2069 8.43389C13.5211 8.43389 13.7755 8.17951 13.7755 7.86533V6.82995H16.6231C16.973 6.82995 17.2583 7.11526 17.2583 7.4652L17.259 20.701ZM6.04865 4.90633C6.04865 3.08926 7.52677 1.61114 9.34383 1.61114C11.1609 1.61114 12.639 3.08926 12.639 4.90633V5.69214H6.04933V4.90633H6.04865ZM16.6238 5.69283H13.7761V4.90701C13.7761 2.46295 11.7879 0.474701 9.34383 0.474701C6.89977 0.474701 4.91152 2.46295 4.91152 4.90701V5.69283H2.0639C1.08627 5.69283 0.290833 6.48826 0.290833 7.46589V20.7016C0.290833 21.6793 1.08627 22.4747 2.0639 22.4747H16.6238C17.6014 22.4747 18.3968 21.6793 18.3968 20.7016V7.46589C18.3968 6.48826 17.6014 5.69283 16.6238 5.69283Z" fill="black"/>
</svg>
