<svg width="151" height="41" viewBox="0 0 151 41" fill="none" xmlns="http://www.w3.org/2000/svg">
<g clip-path="url(#clip0_7_2019)">
<path d="M17.6448 6.58438L5.58203 29.755H9.60476L13.1202 23.0342H23.9529L27.5148 29.755H31.7502L19.5129 6.58411H17.6453L17.6448 6.58438ZM22.1344 19.4337H15.0078L18.5797 12.6073L22.1344 19.4337ZM59.786 6.58438L50.4315 23.6536L41.1402 6.58438H39.5131L35.8684 29.7564H39.5219L41.7983 15.3237L49.6556 29.7564H51.2194L59.1342 15.3523L61.3338 29.7564H64.9869L61.4671 6.58438H59.786ZM80.9704 6.58438L68.9079 29.755H72.9304L76.4459 23.0342H87.278L90.8404 29.755H95.0759L82.8391 6.58411L80.9704 6.58438ZM85.4603 19.4337H78.3339L81.9056 12.6073L85.4603 19.4337ZM111.663 19.2182C113.02 18.7224 114.082 17.9713 114.823 16.9884C115.595 15.9621 115.946 14.1706 115.946 12.9395C115.946 11.374 115.397 10.0363 114.315 8.96311C113.254 7.90929 111.861 7.21438 110.179 6.89638C109.069 6.68474 108.004 6.58438 104.965 6.58438H99.161V29.7558H102.769V19.9758H104.976L112.468 29.7564H117.202L109.527 19.7827C110.154 19.645 111.103 19.4227 111.663 19.2182ZM111.762 14.8887C111.369 15.3916 110.808 15.7641 110.097 15.9973C109.347 16.2436 108.154 16.366 106.555 16.366L102.769 16.3409V10.1931H106.653C108.302 10.1931 109.484 10.3085 110.173 10.5351C110.836 10.7533 111.353 11.1051 111.758 11.6069C112.152 12.0995 112.344 12.6267 112.344 13.2239C112.344 13.8411 112.155 14.3863 111.762 14.8887ZM141.611 9.40111C139.226 7.12656 136.222 5.97401 132.689 5.97401C130.505 5.97401 128.444 6.50311 126.567 7.54956C124.686 8.59683 123.181 10.0649 122.091 11.9116C121.004 13.762 120.449 15.7955 120.449 17.9604C120.449 21.2129 121.662 24.0212 124.053 26.3107C126.44 28.5948 129.408 29.7539 132.871 29.7539C136.296 29.7539 139.239 28.5877 141.622 26.2949C144.008 23.9967 145.218 21.1576 145.218 17.8567C145.218 14.5254 144.003 11.6808 141.611 9.40138V9.40111ZM141.685 17.8494C141.685 19.4473 141.294 20.9165 140.528 22.2207C139.761 23.524 138.676 24.5661 137.304 25.3175C135.927 26.0721 134.408 26.4553 132.791 26.4553C130.369 26.4553 128.272 25.6251 126.558 23.9855C124.85 22.3535 123.983 20.3233 123.983 17.95C123.983 16.3453 124.373 14.8696 125.148 13.5657C125.92 12.2604 127.011 11.2079 128.39 10.4372C129.77 9.66401 131.25 9.27265 132.792 9.27265C134.359 9.27265 135.865 9.66456 137.265 10.4383C138.665 11.2104 139.763 12.2519 140.531 13.531C141.297 14.8085 141.685 16.2616 141.685 17.8494Z" fill="black"/>
</g>
<defs>
<clipPath id="clip0_7_2019">
<rect width="150" height="24" fill="white" transform="translate(0.400208 5.97401)"/>
</clipPath>
</defs>
</svg>
