<svg width="19" height="19" viewBox="0 0 19 19" fill="none" xmlns="http://www.w3.org/2000/svg">
<path d="M17.2961 17.6493C16.8404 18.1044 16.3151 17.6257 16.2144 17.525L12.1019 13.4126C12.2752 13.2697 12.4428 13.1178 12.6037 12.957C12.7651 12.7955 12.9164 12.6273 13.0587 12.4546L17.1717 16.5676C17.2724 16.6683 17.7517 17.1937 17.2961 17.6493ZM3.47656 12.1571C2.36449 11.045 1.75193 9.5662 1.75193 7.99401C1.75193 6.42183 2.36449 4.94245 3.47656 3.83039C4.62462 2.68233 6.13212 2.10858 7.64018 2.10858C9.14824 2.10858 10.6557 2.68233 11.8032 3.83039C12.9153 4.94245 13.5279 6.42126 13.5279 7.99401C13.5279 9.56676 12.9153 11.045 11.8032 12.1571C10.6912 13.2691 9.21237 13.8817 7.64018 13.8817C6.06799 13.8817 4.58862 13.2691 3.47656 12.1571ZM18.6123 17.0559C18.569 16.5952 18.3417 16.1379 17.9716 15.7678L13.7146 11.5102C15.2677 8.82539 14.8981 5.32439 12.6037 3.02995C11.2779 1.70414 9.51499 0.974014 7.64018 0.974014C5.76537 0.974014 4.00249 1.70414 2.67668 3.02995C1.35087 4.35576 0.620743 6.11864 0.620743 7.99345C0.620743 9.86826 1.35087 11.6311 2.67668 12.957C4.00249 14.2828 5.76537 15.0129 7.64018 15.0129C8.89624 15.0129 10.1006 14.6838 11.1581 14.069L15.4139 18.3249C15.8437 18.7546 16.3612 18.9718 16.8629 18.9718C17.3107 18.9718 17.7466 18.7985 18.0959 18.4492C18.4773 18.0678 18.6607 17.5734 18.6123 17.0559Z" fill="#666666"/>
</svg>
